<!DOCTYPE svg PUBLIC "-//W3C//DTD SVG 20010904//EN" "http://www.w3.org/TR/2001/REC-SVG-20010904/DTD/svg10.dtd">
<svg version="1.0" xmlns="http://www.w3.org/2000/svg" width="70px" height="70px" viewBox="0 0 700 700" preserveAspectRatio="xMidYMid meet">
<g id="layer101" fill="#de0303" stroke="none">
 <path d="M0 350 l0 -350 350 0 350 0 0 350 0 350 -350 0 -350 0 0 -350z"/>
 </g>
<g id="layer102" fill="#e11c1c" stroke="none">
 <path d="M0 350 l0 -350 350 0 350 0 0 350 0 350 -350 0 -350 0 0 -350z m343 273 l-163 -3 0 -41 0 -40 160 3 c88 2 160 0 160 -4 0 -5 -11 -8 -24 -8 -14 0 -28 -5 -31 -11 -4 -5 -18 -14 -31 -19 -14 -6 -29 -20 -34 -32 -5 -13 -9 -16 -9 -8 -1 23 12 38 44 52 30 13 30 13 -22 16 -29 2 -77 2 -105 0 l-53 -4 31 -12 c30 -12 54 -47 54 -77 0 -8 9 -15 20 -15 11 0 20 4 20 9 0 14 90 -71 110 -105 13 -20 33 -35 60 -43 43 -13 80 -58 80 -96 -1 -12 -7 -4 -15 18 -12 34 -39 66 -57 67 -3 0 -14 3 -24 7 -14 5 -16 2 -10 -23 3 -16 -7 -1 -24 33 -45 91 -104 134 -165 119 -34 -9 -100 -69 -115 -106 -7 -17 -16 -30 -21 -30 -11 0 -12 17 -1 22 4 2 20 22 35 46 15 23 43 50 62 59 24 11 35 24 35 38 0 26 -27 65 -44 65 -8 0 -19 6 -26 14 -6 8 -24 16 -38 18 -25 3 -27 7 -30 51 l-3 47 168 -2 168 -2 -162 -3z m-208 -359 c-37 -19 -34 -16 -50 -61 -8 -21 -14 -30 -15 -20 -1 43 43 96 80 97 8 0 2 -7 -15 -16z m196 6 c13 -8 25 -7 39 0 18 10 20 8 20 -18 0 -15 5 -33 12 -40 9 -9 7 -13 -8 -18 -10 -4 -26 -16 -35 -27 l-17 -20 -6 20 c-4 12 -18 24 -32 27 -25 7 -26 8 -9 26 10 11 15 28 12 40 -6 23 -3 24 24 10z m-160 -41 c-5 -13 -10 -19 -10 -12 -1 15 10 45 15 40 3 -2 0 -15 -5 -28z m346 -26 c-4 -3 -7 0 -7 7 0 7 3 10 7 7 3 -4 3 -10 0 -14z m-366 -54 c-6 -24 -11 -50 -11 -56 0 -10 47 -13 201 -13 l201 0 -6 43 c-3 23 -3 34 0 25 7 -23 70 -25 77 -3 4 11 4 10 3 -2 -1 -13 -11 -19 -34 -21 -26 -3 -32 -7 -32 -28 l0 -24 -210 0 -210 0 0 24 c0 21 -6 25 -32 28 -23 2 -33 8 -34 21 -1 12 -1 13 3 2 3 -9 17 -15 38 -15 30 0 33 3 40 36 3 20 8 34 11 31 3 -2 0 -24 -5 -48z m376 24 c-4 -3 -7 0 -7 7 0 7 3 10 7 7 3 -4 3 -10 0 -14z"/>
 <path d="M320 238 c0 -10 -4 -18 -10 -18 -5 0 -10 -4 -10 -10 0 -5 7 -10 15 -10 7 0 18 -8 24 -17 9 -17 10 -17 16 0 4 9 14 17 22 17 10 0 13 6 9 16 -3 9 -6 21 -6 28 0 7 -13 13 -30 13 -22 0 -30 -5 -30 -19z"/>
 </g>
<g id="layer103" fill="#e33232" stroke="none">
 <path d="M0 350 l0 -350 350 0 350 0 0 350 0 350 -350 0 -350 0 0 -350z m508 232 c3 -33 -1 -43 -15 -48 -63 -21 -107 -51 -115 -79 -7 -27 -3 -34 37 -68 25 -22 52 -52 60 -67 9 -18 26 -31 44 -35 49 -11 78 -40 91 -94 14 -59 9 -71 -31 -71 -24 0 -29 -4 -29 -25 l0 -25 -210 0 -210 0 0 25 c0 21 -5 25 -29 25 -40 0 -45 12 -31 71 13 53 42 83 88 94 18 3 35 19 50 45 12 22 41 52 63 67 35 23 39 30 34 52 -8 32 -23 51 -40 51 -7 0 -18 7 -25 15 -7 8 -25 15 -41 15 -28 0 -29 2 -29 50 l0 50 168 -2 167 -3 3 -43z"/>
 <path d="M182 583 l3 -38 153 -3 152 -3 0 41 0 40 -156 0 -155 0 3 -37z"/>
 <path d="M240 525 c0 -3 15 -11 34 -19 28 -12 36 -22 42 -50 9 -50 37 -49 53 3 8 29 19 42 41 50 17 5 30 12 30 15 0 4 -45 6 -100 6 -55 0 -100 -2 -100 -5z"/>
 <path d="M295 396 c-38 -16 -82 -67 -105 -121 -14 -33 -50 -169 -50 -189 0 -4 90 -6 201 -6 l201 0 -7 33 c-26 132 -90 253 -148 280 -42 20 -52 20 -92 3z m36 -126 c13 -8 25 -7 39 0 18 10 20 8 20 -19 0 -17 6 -31 16 -35 20 -8 8 -26 -18 -26 -11 0 -22 -8 -25 -20 -3 -11 -9 -20 -13 -20 -5 0 -12 9 -15 20 -3 11 -14 20 -24 20 -27 0 -33 12 -15 31 9 10 14 27 11 39 -6 23 -3 24 24 10z"/>
 <path d="M320 239 c0 -10 -5 -21 -11 -24 -6 -4 1 -13 18 -22 18 -9 29 -11 31 -4 2 6 10 11 18 11 16 0 19 16 4 25 -5 3 -7 11 -4 19 3 9 -5 13 -26 13 -22 0 -30 -5 -30 -18z"/>
 <path d="M141 267 c-33 -16 -58 -55 -66 -99 -6 -38 -6 -38 27 -38 33 0 34 1 52 71 10 39 16 72 14 74 -2 2 -14 -1 -27 -8z"/>
 <path d="M505 261 c3 -9 13 -42 22 -73 16 -56 17 -58 51 -58 31 0 34 2 28 23 -3 12 -6 30 -6 39 0 25 -47 75 -75 81 -21 3 -25 1 -20 -12z"/>
 </g>
<g id="layer104" fill="#e65353" stroke="none">
 <path d="M0 350 l0 -350 350 0 350 0 0 350 0 350 -350 0 -350 0 0 -350z m510 235 c0 -35 -4 -47 -17 -51 -30 -10 -98 -47 -105 -58 -17 -25 -8 -63 18 -76 14 -8 39 -35 55 -61 23 -35 40 -49 69 -58 47 -14 76 -48 85 -102 8 -46 -6 -69 -41 -69 -17 0 -24 -6 -24 -20 0 -19 -7 -20 -210 -20 -203 0 -210 1 -210 20 0 14 -7 20 -24 20 -35 0 -49 23 -41 67 10 55 31 82 81 104 26 12 50 31 59 48 14 27 52 64 89 86 30 18 10 61 -41 90 -25 14 -54 25 -64 25 -16 0 -19 8 -19 50 l0 50 170 0 170 0 0 -45z"/>
 <path d="M182 583 l3 -38 153 -3 152 -3 0 41 0 40 -156 0 -155 0 3 -37z"/>
 <path d="M253 524 c4 -4 17 -12 29 -18 14 -7 27 -26 32 -49 13 -51 38 -49 56 5 10 28 22 44 35 46 11 2 24 8 29 13 6 5 -30 9 -89 9 -54 0 -95 -3 -92 -6z"/>
 <path d="M306 399 c-72 -21 -133 -130 -160 -286 l-5 -33 200 0 201 0 -7 32 c-21 108 -82 237 -124 267 -34 24 -69 31 -105 20z m39 -131 c6 0 18 3 28 7 13 6 17 2 17 -18 0 -13 7 -30 15 -37 18 -15 11 -30 -15 -30 -10 0 -22 -9 -25 -20 -8 -25 -17 -25 -33 0 -7 11 -21 20 -32 20 -24 0 -26 13 -4 31 10 8 13 21 9 37 -5 21 -3 23 12 17 10 -4 23 -7 28 -7z"/>
 <path d="M320 243 c0 -6 -3 -18 -6 -27 -4 -10 -1 -16 9 -16 8 0 18 -6 21 -12 5 -10 7 -10 12 0 3 6 12 12 20 12 16 0 19 16 4 25 -5 3 -7 12 -4 19 4 9 -4 13 -25 12 -17 -1 -31 -6 -31 -13z"/>
 <path d="M116 248 c-24 -22 -51 -100 -38 -113 3 -3 17 -5 31 -5 24 0 28 6 40 56 7 31 15 63 18 70 8 22 -23 16 -51 -8z"/>
 <path d="M524 200 c19 -63 24 -70 47 -70 35 0 38 5 28 53 -10 45 -48 87 -78 87 -18 0 -17 -3 3 -70z"/>
 </g>
<g id="layer105" fill="#e97171" stroke="none">
 <path d="M0 350 l0 -350 350 0 350 0 0 350 0 350 -350 0 -350 0 0 -350z m510 230 c0 -46 -2 -50 -24 -50 -13 0 -29 -7 -36 -15 -7 -8 -18 -15 -26 -15 -21 0 -44 -30 -44 -59 0 -19 8 -32 29 -44 16 -9 42 -37 57 -61 19 -31 37 -46 57 -50 45 -9 84 -56 92 -110 8 -52 0 -66 -42 -66 -16 0 -23 -6 -23 -20 0 -19 -7 -20 -210 -20 -203 0 -210 1 -210 20 0 14 -7 20 -22 20 -42 0 -52 14 -44 61 9 59 30 87 77 108 22 10 52 36 70 60 17 24 44 50 60 59 29 17 39 53 21 77 -12 18 -82 55 -103 55 -16 0 -19 7 -19 50 l0 50 170 0 170 0 0 -50z"/>
 <path d="M189 618 c0 -2 -1 -18 -2 -36 l-2 -32 153 0 152 0 0 35 0 35 -150 0 c-82 0 -150 -1 -151 -2z"/>
 <path d="M255 520 c3 -5 12 -10 20 -10 19 0 45 -39 45 -67 0 -40 35 -29 46 14 5 23 18 42 32 49 42 21 35 24 -57 24 -59 0 -90 -4 -86 -10z"/>
 <path d="M262 374 c-18 -14 -44 -48 -58 -75 -25 -50 -65 -198 -57 -211 2 -5 92 -8 199 -8 l194 0 -6 28 c-41 190 -110 292 -197 292 -30 0 -51 -8 -75 -26z m130 -119 c-2 -12 4 -27 12 -34 23 -19 20 -31 -8 -31 -16 0 -27 -7 -31 -20 -3 -11 -10 -20 -15 -20 -5 0 -14 9 -20 20 -6 11 -20 20 -30 20 -24 0 -26 13 -5 30 9 7 13 21 9 34 -5 21 -2 22 44 22 44 0 48 -2 44 -21z"/>
 <path d="M324 244 c3 -8 1 -16 -4 -19 -15 -9 -12 -25 4 -25 8 0 17 -6 20 -12 5 -10 7 -10 12 0 3 6 12 12 20 12 17 0 17 2 2 31 -14 25 -63 37 -54 13z"/>
 <path d="M115 247 c-20 -17 -28 -35 -32 -70 -6 -46 -5 -47 23 -47 27 0 30 4 43 56 7 31 15 63 18 70 8 22 -23 16 -52 -9z"/>
 <path d="M524 200 c20 -65 23 -70 50 -70 28 0 29 1 23 47 -5 51 -40 93 -76 93 -18 0 -17 -3 3 -70z"/>
 </g>
<g id="layer106" fill="#ec9191" stroke="none">
 <path d="M0 350 l0 -350 350 0 350 0 0 350 0 350 -350 0 -350 0 0 -350z m508 233 c3 -48 1 -53 -18 -53 -12 0 -33 -9 -47 -20 -14 -11 -31 -20 -38 -20 -15 0 -25 -22 -25 -53 0 -14 11 -28 30 -39 17 -10 43 -37 58 -62 20 -33 35 -46 59 -51 39 -7 80 -53 89 -99 10 -55 3 -71 -34 -74 -27 -3 -33 -7 -30 -25 3 -22 2 -22 -209 -25 l-213 -3 0 25 c0 21 -5 25 -32 28 -28 3 -34 7 -36 32 -6 49 25 112 62 130 19 9 39 16 45 16 6 0 17 13 25 29 16 30 80 91 96 91 6 0 10 13 10 29 0 31 -22 61 -44 61 -8 0 -19 7 -26 15 -7 8 -23 15 -36 15 -22 0 -24 4 -24 48 0 27 3 52 7 56 4 3 79 5 167 4 l161 -3 3 -52z"/>
 <path d="M190 585 l0 -35 150 0 150 0 0 35 0 35 -150 0 -150 0 0 -35z"/>
 <path d="M255 520 c3 -5 12 -10 20 -10 19 0 45 -39 45 -67 0 -40 35 -29 46 14 5 23 18 42 32 49 42 21 35 24 -57 24 -59 0 -90 -4 -86 -10z"/>
 <path d="M273 381 c-53 -33 -108 -148 -120 -253 l-6 -48 191 0 c105 0 193 3 195 7 3 5 -1 31 -8 58 -27 102 -57 167 -99 211 -36 37 -48 44 -82 44 -21 0 -53 -9 -71 -19z m121 -126 c-3 -13 1 -27 10 -34 22 -18 20 -31 -4 -31 -11 0 -27 -12 -37 -26 l-16 -26 -14 26 c-8 15 -22 26 -33 26 -24 0 -26 13 -5 30 9 7 13 21 9 34 -5 21 -2 22 45 22 46 0 50 -2 45 -21z"/>
 <path d="M324 244 c3 -7 1 -16 -4 -19 -15 -9 -12 -25 5 -25 8 0 15 -5 15 -10 0 -6 12 -3 26 7 15 9 22 19 15 21 -6 2 -11 10 -11 17 0 7 -12 15 -26 18 -18 3 -24 1 -20 -9z"/>
 <path d="M127 259 c-24 -14 -47 -62 -47 -99 0 -28 3 -31 26 -28 23 2 29 10 39 48 6 25 15 55 19 68 8 24 -6 29 -37 11z"/>
 <path d="M526 203 c19 -58 26 -68 48 -71 23 -3 26 0 26 28 0 56 -40 110 -83 110 -11 0 -9 -14 9 -67z"/>
 </g>
<g id="layer107" fill="#f0b5b5" stroke="none">
 <path d="M0 350 l0 -350 350 0 350 0 0 350 0 350 -350 0 -350 0 0 -350z m508 233 c3 -47 1 -53 -17 -53 -30 0 -101 -51 -108 -78 -5 -19 2 -31 35 -61 22 -20 50 -51 62 -68 12 -18 28 -33 36 -33 55 0 108 -71 102 -138 -3 -34 -6 -37 -35 -40 -27 -3 -32 -7 -30 -25 l2 -22 -215 0 -215 0 3 22 c3 18 -3 22 -30 25 -30 3 -33 6 -36 40 -6 67 47 138 101 138 8 0 27 21 43 46 16 25 44 54 61 65 18 12 33 29 33 39 0 28 -11 50 -25 50 -7 0 -24 9 -38 20 -14 11 -35 20 -46 20 -19 0 -21 6 -21 55 l0 55 168 -2 167 -3 3 -52z"/>
 <path d="M190 585 l0 -35 150 0 150 0 0 35 0 35 -150 0 -150 0 0 -35z"/>
 <path d="M270 517 c34 -16 49 -37 50 -69 0 -21 5 -28 20 -28 14 0 20 7 20 23 0 28 26 67 45 67 8 0 17 5 20 10 4 6 -27 10 -87 9 -79 0 -89 -2 -68 -12z"/>
 <path d="M268 375 c-41 -28 -77 -96 -102 -191 -29 -113 -44 -104 174 -104 l190 0 0 23 c0 36 -29 126 -61 188 -53 107 -124 136 -201 84z m98 -96 c27 12 38 1 29 -28 -3 -10 1 -24 10 -31 21 -17 19 -30 -5 -30 -11 0 -27 -12 -37 -26 l-16 -26 -14 26 c-8 14 -22 26 -33 26 -25 0 -36 18 -16 26 10 4 16 19 16 40 0 32 2 34 21 23 16 -8 28 -8 45 0z"/>
 <path d="M325 239 c3 -4 1 -10 -4 -14 -6 -3 -3 -13 7 -24 15 -15 19 -16 33 -4 23 20 13 51 -17 51 -13 0 -21 -4 -19 -9z"/>
 <path d="M129 255 c-28 -15 -49 -60 -49 -102 0 -20 4 -24 26 -21 24 3 29 10 44 71 10 37 15 67 11 67 -3 -1 -18 -7 -32 -15z"/>
 <path d="M510 263 c0 -5 9 -35 19 -68 16 -51 22 -60 45 -63 22 -3 26 1 26 21 0 44 -22 87 -51 102 -32 17 -39 18 -39 8z"/>
 </g>
<g id="layer108" fill="#f2d0d0" stroke="none">
 <path d="M0 350 l0 -350 350 0 350 0 0 350 0 350 -350 0 -350 0 0 -350z m508 233 c-2 -45 -7 -58 -19 -58 -8 0 -26 -7 -40 -16 -13 -8 -32 -18 -41 -22 -10 -3 -20 -18 -24 -32 -6 -22 -1 -32 30 -57 21 -17 48 -48 62 -69 13 -22 32 -39 42 -39 9 0 31 -9 49 -20 35 -21 57 -75 51 -125 -2 -24 -9 -31 -33 -35 -22 -4 -30 -11 -30 -25 0 -19 -7 -20 -215 -20 l-215 0 2 22 c2 18 -3 22 -30 25 -27 3 -32 7 -35 33 -6 50 16 104 51 125 18 11 39 20 47 20 8 0 28 20 43 45 16 24 44 54 63 65 36 23 43 46 22 71 -19 23 -65 49 -86 49 -10 0 -23 5 -30 12 -13 13 -17 90 -5 101 3 4 82 7 175 7 l169 0 -3 -57z"/>
 <path d="M190 580 l0 -30 150 0 150 0 0 30 0 30 -150 0 -150 0 0 -30z"/>
 <path d="M260 522 c0 -1 11 -7 25 -12 15 -6 27 -20 31 -37 10 -48 13 -53 29 -53 8 0 15 9 15 20 0 33 21 66 48 76 19 7 3 9 -61 9 -48 0 -87 -1 -87 -3z"/>
 <path d="M300 393 c-28 -10 -72 -58 -96 -106 -24 -47 -61 -184 -52 -193 7 -6 369 -6 376 1 10 9 -38 157 -67 210 -42 76 -103 109 -161 88z m28 -115 c9 -9 18 -9 37 0 36 17 38 16 32 -17 -4 -19 -1 -33 8 -41 21 -17 19 -30 -5 -30 -12 0 -25 -10 -32 -25 -14 -30 -24 -32 -38 -5 -6 11 -22 23 -35 26 -29 7 -31 16 -10 34 8 7 15 25 15 41 0 31 9 36 28 17z"/>
 <path d="M330 234 c0 -8 -6 -14 -12 -14 -7 0 -2 -7 10 -16 18 -13 24 -13 36 -2 7 7 10 20 7 28 -8 19 -41 22 -41 4z"/>
 <path d="M135 259 c-28 -14 -43 -40 -51 -89 -6 -38 -5 -40 20 -40 20 0 27 6 32 28 3 15 12 46 19 70 14 44 13 47 -20 31z"/>
 <path d="M513 257 c2 -6 12 -38 21 -69 15 -51 20 -58 43 -58 24 0 25 2 19 41 -4 23 -11 49 -16 59 -11 21 -75 47 -67 27z"/>
 </g>
<g id="layer109" fill="#f6f6f6" stroke="none">
 <path d="M0 350 l0 -350 350 0 350 0 0 350 0 350 -350 0 -350 0 0 -350z m510 235 c0 -44 -4 -57 -17 -62 -62 -20 -102 -46 -107 -69 -6 -22 0 -32 36 -64 24 -21 50 -49 57 -63 8 -16 30 -31 54 -39 48 -15 75 -49 88 -107 11 -51 0 -71 -41 -71 -24 0 -27 -3 -22 -25 l4 -25 -221 0 -221 0 0 25 c0 20 -5 25 -25 25 -14 0 -29 8 -35 20 -25 46 38 160 88 160 13 0 34 19 56 50 19 27 49 56 66 65 16 8 30 22 30 31 0 24 -19 54 -34 54 -8 0 -19 6 -26 14 -6 8 -26 16 -43 18 -30 3 -32 6 -35 47 -5 74 -12 71 178 71 l170 0 0 -55z"/>
 <path d="M190 580 l0 -30 148 0 148 0 2 30 2 30 -150 0 -150 0 0 -30z"/>
 <path d="M287 510 c12 -5 27 -25 34 -44 15 -40 39 -48 39 -13 0 26 17 52 40 60 8 3 -19 5 -60 6 -52 0 -68 -3 -53 -9z"/>
 <path d="M300 389 c-61 -24 -100 -86 -131 -206 -10 -42 -19 -80 -19 -85 0 -4 85 -8 189 -8 l190 0 -6 37 c-9 56 -50 163 -81 207 -25 36 -74 67 -104 65 -7 0 -24 -5 -38 -10z m50 -112 c8 0 23 3 33 8 14 6 17 2 17 -22 0 -16 5 -34 11 -40 16 -16 3 -43 -20 -43 -11 0 -22 -9 -26 -20 -3 -11 -10 -20 -15 -20 -5 0 -14 9 -20 20 -6 11 -16 20 -23 20 -7 0 -19 4 -27 10 -12 7 -12 12 4 29 10 10 17 28 16 38 -4 31 -1 35 18 28 9 -5 24 -8 32 -8z"/>
 <path d="M327 231 c-2 -9 1 -21 8 -27 15 -15 44 6 36 26 -8 21 -38 21 -44 1z"/>
 <path d="M143 260 c-27 -11 -51 -46 -59 -88 -6 -29 -4 -32 19 -32 22 0 28 6 37 43 6 23 15 52 20 65 5 12 9 22 7 21 -1 0 -12 -4 -24 -9z"/>
 <path d="M510 267 c0 -1 9 -29 19 -62 16 -52 22 -60 46 -63 26 -3 27 -2 20 30 -8 42 -34 79 -63 89 -12 5 -22 7 -22 6z"/>
 </g>

</svg>